# xmcd CD database file
#
# Track frame offsets:
#	150
#	32205
#	55972
#	81092
#	108110
#	134095
#
# Disc length: 2243 seconds
#
# Revision: 0
# Processed by: cddbd v1.5.2PL0 Copyright (c) Steve Scherf et al.
# Submitted via: CDex 1.50
#
DISCID=4d08c106
DTITLE=Claude Williamson - La Fiesta
DYEAR=1979
DGENRE=Jazz
TTITLE0=La Fiesta
TTITLE1=The Love Of Child
TTITLE2=First Trip
TTITLE3=In Your Quiet Place
TTITLE4=Nica's Dream
TTITLE5=Black Forest
EXTD=YEAR: 1979
EXTT0=
EXTT1=
EXTT2=
EXTT3=
EXTT4=
EXTT5=
PLAYORDER=
